<?xml version="1.0" encoding="utf-8"?>
<!-- Generator: Adobe Illustrator 16.0.0, SVG Export Plug-In . SVG Version: 6.00 Build 0)  -->
<!DOCTYPE svg PUBLIC "-//W3C//DTD SVG 1.1//EN" "http://www.w3.org/Graphics/SVG/1.1/DTD/svg11.dtd">
<svg version="1.1" id="Layer_1" xmlns="http://www.w3.org/2000/svg" xmlns:xlink="http://www.w3.org/1999/xlink" x="0px" y="0px"
	 width="185.04px" height="28.739px" viewBox="0 0 185.04 28.739" enable-background="new 0 0 185.04 28.739" xml:space="preserve">
<g>
	<path fill="#FFFFFF" d="M0,0.504h1.977v15.401h0.085L15.735,0.504h2.273L9.046,10.771l10.141,17.461h-2.232L7.7,12.244
		l-5.723,6.438v9.551H0V0.504z"/>
	<path fill="#FFFFFF" d="M54.572,18.051L45.064,0.504h1.977l4.926,9.173c1.261,2.104,2.311,4.292,3.572,6.521h0.171
		c1.261-2.229,2.44-4.418,3.62-6.564l4.796-9.13h1.893l-9.51,17.546v10.182h-1.936V18.051z"/>
	<path fill="#FFFFFF" d="M80.395,0c3.198,0,5.682,1.598,7.196,3.324l-1.179,1.263c-1.473-1.684-3.491-2.819-6.017-2.819
		c-6.101,0-9.889,4.839-9.889,12.538c0,7.7,3.788,12.665,9.763,12.665c2.819,0,4.922-1.135,6.94-3.407l1.138,1.22
		c-2.103,2.439-4.629,3.954-8.205,3.954c-6.858,0-11.655-5.595-11.655-14.432C68.487,5.512,73.284,0,80.395,0z"/>
	<path fill="#FFFFFF" d="M119.363,0.504h6.354c8.498,0,12.541,5.386,12.541,13.759c0,8.415-4.042,13.969-12.5,13.969h-6.395V0.504z
		 M125.55,26.592c7.445,0,10.687-5.091,10.687-12.328c0-7.196-3.241-12.118-10.687-12.118h-4.25v24.446H125.55z"/>
	<path fill="#FFFFFF" d="M167.243,23.226c2.1,2.272,5.133,3.745,8.54,3.745c4.502,0,7.322-2.272,7.322-5.553
		c0-3.452-2.482-4.587-5.43-5.807l-4.206-1.894c-2.564-1.052-6.017-2.778-6.017-6.901c0-3.997,3.617-6.815,8.457-6.815
		c3.536,0,6.354,1.514,8.165,3.324l-1.136,1.303c-1.726-1.725-4.084-2.86-7.029-2.86c-3.913,0-6.521,1.935-6.521,4.965
		c0,3.198,3.03,4.418,5.218,5.343l4.166,1.852c3.324,1.389,6.269,3.114,6.269,7.364c0,4.249-3.661,7.446-9.257,7.446
		c-4.251,0-7.531-1.725-9.804-4.165L167.243,23.226z"/>
	<path fill="#FFFFFF" d="M93.261,14.265c0-8.752,4.294-14.264,10.352-14.264s10.353,5.512,10.353,14.264
		c0,8.793-4.295,14.474-10.353,14.474S93.261,23.059,93.261,14.265z M111.944,14.265c0-7.658-3.364-12.496-8.331-12.496
		c-4.966,0-8.331,4.838-8.331,12.496c0,7.701,3.365,12.706,8.331,12.706C108.58,26.971,111.944,21.966,111.944,14.265z"/>
	<path fill="#FFFFFF" d="M143.543,23.227c1.766,1.768,4.376,3.45,8.414,3.45c4.125,0,7.28-2.356,7.28-5.932
		c0-3.703-3.238-6.228-10.73-6.228v-1.641c7.028,0,9.721-2.609,9.721-5.85c0-3.029-2.611-5.006-6.395-5.006
		c-2.781,0-5.43,1.304-7.114,2.945l-1.135-1.263c2.018-1.808,4.84-3.282,8.29-3.282c4.629,0,8.291,2.357,8.291,6.48
		c0,3.535-2.652,5.638-6.102,6.648v0.169c3.743,0.714,7.11,3.197,7.11,6.985c0,4.67-4.083,7.615-9.216,7.615
		c-4.67,0-7.616-1.977-9.467-3.788L143.543,23.227z"/>
	<path fill="#FFFFFF" d="M24.055,23.227c1.766,1.768,4.377,3.45,8.413,3.45c4.125,0,7.281-2.356,7.281-5.932
		c0-3.703-3.238-6.228-10.731-6.228v-1.641c7.029,0,9.722-2.609,9.722-5.85c0-3.029-2.611-5.006-6.395-5.006
		c-2.781,0-5.43,1.304-7.113,2.945l-1.135-1.263c2.018-1.808,4.84-3.282,8.29-3.282c4.629,0,8.29,2.357,8.29,6.48
		c0,3.535-2.652,5.638-6.102,6.648v0.169c3.744,0.714,7.111,3.197,7.111,6.985c0,4.67-4.083,7.615-9.217,7.615
		c-4.67,0-7.615-1.977-9.467-3.788L24.055,23.227z"/>
</g>
</svg>
