<?xml version="1.0" encoding="utf-8"?>
<!-- Generator: Adobe Illustrator 16.0.0, SVG Export Plug-In . SVG Version: 6.00 Build 0)  -->
<!DOCTYPE svg PUBLIC "-//W3C//DTD SVG 1.1//EN" "http://www.w3.org/Graphics/SVG/1.1/DTD/svg11.dtd">
<svg version="1.1" id="Layer_1" xmlns="http://www.w3.org/2000/svg" xmlns:xlink="http://www.w3.org/1999/xlink" x="0px" y="0px"
	 width="16px" height="16px" viewBox="0 0 16 16" enable-background="new 0 0 16 16" xml:space="preserve">
<path fill="#BBBBBB" d="M14.112,9.08c0.148,0,0.286-0.12,0.306-0.268c0,0,0.062-0.443,0.062-0.812c0-0.369-0.062-0.813-0.062-0.813
	c-0.021-0.147-0.158-0.268-0.306-0.268h-1.108c-0.148,0-0.27,0-0.27,0c0,0.001-0.037-0.114-0.082-0.255l-0.417-1.009
	c-0.068-0.131-0.125-0.239-0.125-0.239s0.086-0.085,0.191-0.191l0.784-0.785c0.105-0.105,0.112-0.284,0.017-0.397l-1.145-1.147
	c-0.113-0.096-0.292-0.089-0.397,0.017l-0.785,0.785c-0.105,0.105-0.19,0.191-0.189,0.192c0,0,0,0,0.001,0
	c-0.458-0.289-1.251-0.543-1.251-0.543C9.194,3.301,9.079,3.264,9.079,3.264S9.08,3.143,9.08,2.994V1.887
	c0-0.148-0.12-0.287-0.268-0.306c0,0-0.443-0.062-0.812-0.062S7.188,1.581,7.188,1.581C7.04,1.601,6.919,1.739,6.919,1.887v1.107
	c0,0.149,0,0.27,0,0.27c0,0-0.114,0.037-0.256,0.083L5.656,3.764C5.524,3.833,5.417,3.889,5.417,3.889S5.331,3.803,5.226,3.698
	L4.441,2.913C4.336,2.808,4.157,2.8,4.043,2.896L2.897,4.043C2.801,4.157,2.808,4.335,2.914,4.44l0.785,0.785
	c0.105,0.105,0.191,0.19,0.191,0.19c0,0,0,0,0.001-0.001c-0.289,0.458-0.543,1.25-0.543,1.25C3.301,6.806,3.264,6.921,3.265,6.921
	c0,0-0.122-0.001-0.27-0.001H1.888c-0.149,0-0.287,0.121-0.307,0.268c0,0-0.061,0.444-0.061,0.813c0,0.369,0.061,0.812,0.061,0.812
	C1.601,8.96,1.739,9.08,1.888,9.08h1.107c0.148,0,0.27,0,0.27,0s0.037,0.114,0.083,0.256c0,0,0.255,0.793,0.543,1.251
	C3.89,10.586,3.89,10.586,3.89,10.586c0-0.001-0.086,0.084-0.191,0.189l-0.785,0.785c-0.105,0.105-0.117,0.288-0.027,0.405
	l0.348,0.413c0.1,0.108,0.183,0.201,0.184,0.203c0.002,0.001,0.094,0.084,0.204,0.184l0.413,0.348c0.118,0.09,0.3,0.078,0.405-0.026
	l0.786-0.784c0.105-0.105,0.191-0.191,0.191-0.191s0.107,0.056,0.239,0.125l1.008,0.417c0.142,0.045,0.257,0.082,0.257,0.082
	c0,0-0.001,0.121-0.001,0.27v1.107c0,0.149,0.121,0.287,0.268,0.308l0.538,0.046C7.874,14.474,7.997,14.479,8,14.479
	s0.126-0.006,0.275-0.014l0.538-0.046c0.147-0.021,0.268-0.158,0.268-0.308v-1.107c0-0.148,0-0.27,0-0.27s0.114-0.037,0.256-0.082
	c0,0,0.793-0.255,1.251-0.543c-0.001,0-0.001,0-0.001,0c-0.001,0.001,0.084,0.087,0.189,0.192l0.785,0.784
	c0.105,0.104,0.288,0.116,0.404,0.026l0.414-0.349c0.109-0.099,0.2-0.183,0.202-0.183c0.001-0.002,0.083-0.092,0.183-0.202
	l0.349-0.414c0.091-0.117,0.079-0.3-0.026-0.405l-0.784-0.785c-0.105-0.105-0.191-0.19-0.192-0.189c0,0,0,0,0,0.001
	c0.288-0.458,0.543-1.251,0.543-1.251c0.045-0.142,0.082-0.257,0.082-0.257s0.121,0.001,0.27,0.001H14.112z M8,10.7
	c-1.492,0-2.7-1.209-2.7-2.7c0-1.492,1.208-2.7,2.7-2.7c1.491,0,2.7,1.208,2.7,2.7C10.7,9.491,9.491,10.7,8,10.7z"/>
</svg>
