<?xml version="1.0" encoding="utf-8"?>
<!-- Generator: Adobe Illustrator 16.0.0, SVG Export Plug-In . SVG Version: 6.00 Build 0)  -->
<!DOCTYPE svg PUBLIC "-//W3C//DTD SVG 1.1//EN" "http://www.w3.org/Graphics/SVG/1.1/DTD/svg11.dtd">
<svg version="1.1" id="Layer_1" xmlns="http://www.w3.org/2000/svg" xmlns:xlink="http://www.w3.org/1999/xlink" x="0px" y="0px"
	 width="16px" height="16px" viewBox="0 0 16 16" enable-background="new 0 0 16 16" xml:space="preserve">
<g>
	<path fill="#BBBBBB" d="M8,10.701c-1.492,0-2.7-1.209-2.7-2.701c0-0.017,0.004-0.032,0.005-0.049L3.526,6.172
		C3.418,6.446,3.347,6.665,3.347,6.665C3.301,6.806,3.264,6.921,3.265,6.921c0,0-0.122-0.001-0.27-0.001H1.888
		c-0.149,0-0.287,0.12-0.307,0.268c0,0-0.061,0.444-0.061,0.812c0,0.369,0.061,0.812,0.061,0.812C1.601,8.96,1.739,9.08,1.888,9.08
		h1.107c0.148,0,0.27,0,0.27,0s0.037,0.115,0.083,0.256c0,0,0.254,0.791,0.542,1.25c0,0-0.086,0.084-0.191,0.189l-0.785,0.785
		c-0.105,0.105-0.117,0.289-0.027,0.406l0.348,0.412c0.1,0.109,0.183,0.201,0.184,0.203c0.002,0.002,0.094,0.084,0.204,0.184
		l0.413,0.348c0.118,0.09,0.3,0.078,0.405-0.025l0.786-0.785c0.105-0.105,0.191-0.191,0.191-0.191s0.107,0.057,0.239,0.125
		l1.008,0.418c0.142,0.045,0.257,0.082,0.257,0.082c0,0-0.001,0.121-0.001,0.27v1.107c0,0.148,0.121,0.287,0.268,0.307l0.538,0.047
		C7.874,14.475,7.997,14.48,8,14.48s0.126-0.006,0.275-0.014l0.538-0.047C8.96,14.4,9.08,14.262,9.08,14.113v-1.107
		c0-0.148,0-0.27,0-0.27s0.114-0.037,0.256-0.082c0,0,0.22-0.071,0.493-0.18l-1.778-1.778C8.033,10.696,8.018,10.701,8,10.701z"/>
	<path fill="#BBBBBB" d="M14.418,7.188C14.397,7.04,14.26,6.92,14.112,6.92h-1.108c-0.148,0-0.27,0-0.27,0
		c0,0.001-0.037-0.114-0.082-0.255l-0.417-1.009c-0.068-0.132-0.125-0.239-0.125-0.239s0.086-0.086,0.191-0.191l0.784-0.785
		c0.105-0.104,0.112-0.283,0.017-0.396l-1.145-1.147c-0.113-0.096-0.292-0.089-0.397,0.017l-0.785,0.785
		c-0.105,0.104-0.19,0.19-0.189,0.191c0,0,0,0,0.001,0.001c-0.458-0.289-1.251-0.544-1.251-0.544
		C9.194,3.302,9.079,3.265,9.079,3.265S9.08,3.144,9.08,2.994V1.888c0-0.148-0.12-0.287-0.268-0.307c0,0-0.443-0.062-0.812-0.062
		S7.188,1.581,7.188,1.581C7.04,1.601,6.919,1.739,6.919,1.888v1.106c0,0.149,0,0.271,0,0.271c0,0-0.114,0.037-0.256,0.082
		L5.656,3.765C5.539,3.826,5.452,3.871,5.432,3.881L3.631,2.08c-0.14-0.14-0.369-0.14-0.509,0L2.036,3.167
		c-0.14,0.14-0.14,0.369,0,0.509l10.243,10.243c0.141,0.141,0.37,0.141,0.51,0.001l1.087-1.087c0.14-0.14,0.14-0.369-0.001-0.509
		l-1.755-1.755c0.284-0.462,0.532-1.233,0.532-1.233c0.045-0.141,0.082-0.256,0.082-0.256s0.121,0,0.27,0h1.108
		c0.148,0,0.286-0.12,0.306-0.268c0,0,0.062-0.443,0.062-0.812C14.479,7.632,14.418,7.188,14.418,7.188z M7.04,5.489
		C7.338,5.372,7.659,5.301,8,5.301c1.491,0,2.7,1.208,2.7,2.699c0,0.341-0.071,0.662-0.188,0.961L7.04,5.489z"/>
</g>
</svg>
